<mxfile host="app.diagrams.net" agent="Mozilla/5.0 (Windows NT 10.0; Win64; x64) AppleWebKit/537.36 (KHTML, like Gecko) Chrome/136.0.0.0 Safari/537.36 Edg/136.0.0.0" version="27.1.1">
  <diagram name="Страница — 1" id="MxvPOZNu0eZDV6F3p2Vq">
    <mxGraphModel dx="1139" dy="559" grid="1" gridSize="10" guides="1" tooltips="1" connect="1" arrows="1" fold="1" page="1" pageScale="1" pageWidth="827" pageHeight="1169" math="0" shadow="0">
      <root>
        <mxCell id="0" />
        <mxCell id="1" parent="0" />
        <mxCell id="AiupzfriiUT0BEA5pnW3-1" value="Пользователь" style="swimlane;whiteSpace=wrap;html=1;startSize=23;" vertex="1" parent="1">
          <mxGeometry width="240" height="1330" as="geometry" />
        </mxCell>
        <mxCell id="AiupzfriiUT0BEA5pnW3-5" value="Зайти на сайт" style="rounded=1;whiteSpace=wrap;html=1;arcSize=40;fontColor=#000000;fillColor=#ffffc0;strokeColor=#ff0000;" vertex="1" parent="AiupzfriiUT0BEA5pnW3-1">
          <mxGeometry x="60" y="130" width="120" height="40" as="geometry" />
        </mxCell>
        <mxCell id="AiupzfriiUT0BEA5pnW3-6" value="" style="edgeStyle=orthogonalEdgeStyle;html=1;verticalAlign=bottom;endArrow=open;endSize=8;strokeColor=#ff0000;rounded=0;" edge="1" source="AiupzfriiUT0BEA5pnW3-5" parent="AiupzfriiUT0BEA5pnW3-1">
          <mxGeometry relative="1" as="geometry">
            <mxPoint x="120" y="220" as="targetPoint" />
          </mxGeometry>
        </mxCell>
        <mxCell id="AiupzfriiUT0BEA5pnW3-7" value="" style="ellipse;html=1;shape=startState;fillColor=#000000;strokeColor=#ff0000;" vertex="1" parent="AiupzfriiUT0BEA5pnW3-1">
          <mxGeometry x="105" y="40" width="30" height="30" as="geometry" />
        </mxCell>
        <mxCell id="AiupzfriiUT0BEA5pnW3-8" value="" style="edgeStyle=orthogonalEdgeStyle;html=1;verticalAlign=bottom;endArrow=open;endSize=8;strokeColor=#ff0000;rounded=0;" edge="1" source="AiupzfriiUT0BEA5pnW3-7" parent="AiupzfriiUT0BEA5pnW3-1">
          <mxGeometry relative="1" as="geometry">
            <mxPoint x="120" y="130" as="targetPoint" />
          </mxGeometry>
        </mxCell>
        <mxCell id="AiupzfriiUT0BEA5pnW3-9" value="Ввести данные пользователя" style="rounded=1;whiteSpace=wrap;html=1;arcSize=40;fontColor=#000000;fillColor=#ffffc0;strokeColor=#ff0000;" vertex="1" parent="AiupzfriiUT0BEA5pnW3-1">
          <mxGeometry x="60" y="220" width="120" height="40" as="geometry" />
        </mxCell>
        <mxCell id="AiupzfriiUT0BEA5pnW3-16" value="Участвовать в аукционе" style="rounded=1;whiteSpace=wrap;html=1;arcSize=40;fontColor=#000000;fillColor=#ffffc0;strokeColor=#ff0000;" vertex="1" parent="AiupzfriiUT0BEA5pnW3-1">
          <mxGeometry x="60" y="320" width="120" height="40" as="geometry" />
        </mxCell>
        <mxCell id="AiupzfriiUT0BEA5pnW3-49" value="Activity" style="rounded=1;whiteSpace=wrap;html=1;arcSize=40;fontColor=#000000;fillColor=#ffffc0;strokeColor=#ff0000;" vertex="1" parent="AiupzfriiUT0BEA5pnW3-1">
          <mxGeometry x="60" y="1180" width="120" height="40" as="geometry" />
        </mxCell>
        <mxCell id="AiupzfriiUT0BEA5pnW3-50" value="" style="edgeStyle=orthogonalEdgeStyle;html=1;verticalAlign=bottom;endArrow=open;endSize=8;strokeColor=#ff0000;rounded=0;" edge="1" source="AiupzfriiUT0BEA5pnW3-49" parent="AiupzfriiUT0BEA5pnW3-1">
          <mxGeometry relative="1" as="geometry">
            <mxPoint x="120" y="1270" as="targetPoint" />
          </mxGeometry>
        </mxCell>
        <mxCell id="AiupzfriiUT0BEA5pnW3-52" value="" style="ellipse;html=1;shape=endState;fillColor=#000000;strokeColor=#ff0000;" vertex="1" parent="AiupzfriiUT0BEA5pnW3-1">
          <mxGeometry x="105" y="1270" width="30" height="30" as="geometry" />
        </mxCell>
        <mxCell id="AiupzfriiUT0BEA5pnW3-3" value="Система" style="swimlane;whiteSpace=wrap;html=1;" vertex="1" parent="1">
          <mxGeometry x="480" width="320" height="1330" as="geometry" />
        </mxCell>
        <mxCell id="AiupzfriiUT0BEA5pnW3-10" value="Авторизация" style="rounded=1;whiteSpace=wrap;html=1;arcSize=40;fontColor=#000000;fillColor=#ffffc0;strokeColor=#ff0000;" vertex="1" parent="AiupzfriiUT0BEA5pnW3-3">
          <mxGeometry x="60" y="220" width="120" height="40" as="geometry" />
        </mxCell>
        <mxCell id="AiupzfriiUT0BEA5pnW3-13" value="" style="rhombus;whiteSpace=wrap;html=1;fontColor=#000000;fillColor=#ffffc0;strokeColor=#ff0000;" vertex="1" parent="AiupzfriiUT0BEA5pnW3-3">
          <mxGeometry x="80" y="320" width="80" height="40" as="geometry" />
        </mxCell>
        <mxCell id="AiupzfriiUT0BEA5pnW3-15" value="Данные введены верно" style="edgeStyle=orthogonalEdgeStyle;html=1;align=left;verticalAlign=top;endArrow=open;endSize=8;strokeColor=#ff0000;rounded=0;" edge="1" source="AiupzfriiUT0BEA5pnW3-13" parent="AiupzfriiUT0BEA5pnW3-3">
          <mxGeometry x="-0.2643" y="-20" relative="1" as="geometry">
            <mxPoint x="-300" y="340" as="targetPoint" />
            <mxPoint as="offset" />
          </mxGeometry>
        </mxCell>
        <mxCell id="AiupzfriiUT0BEA5pnW3-18" value="Проверка счета на сайте" style="rounded=1;whiteSpace=wrap;html=1;arcSize=40;fontColor=#000000;fillColor=#ffffc0;strokeColor=#ff0000;" vertex="1" parent="AiupzfriiUT0BEA5pnW3-3">
          <mxGeometry x="60" y="420" width="120" height="40" as="geometry" />
        </mxCell>
        <mxCell id="AiupzfriiUT0BEA5pnW3-19" value="" style="rhombus;whiteSpace=wrap;html=1;fontColor=#000000;fillColor=#ffffc0;strokeColor=#ff0000;" vertex="1" parent="AiupzfriiUT0BEA5pnW3-3">
          <mxGeometry x="80" y="520" width="80" height="40" as="geometry" />
        </mxCell>
        <mxCell id="AiupzfriiUT0BEA5pnW3-20" value="" style="edgeStyle=orthogonalEdgeStyle;html=1;align=left;verticalAlign=bottom;endArrow=open;endSize=8;strokeColor=#ff0000;rounded=0;exitX=0.5;exitY=1;exitDx=0;exitDy=0;entryX=0.5;entryY=0;entryDx=0;entryDy=0;" edge="1" source="AiupzfriiUT0BEA5pnW3-18" parent="AiupzfriiUT0BEA5pnW3-3" target="AiupzfriiUT0BEA5pnW3-19">
          <mxGeometry x="-1" relative="1" as="geometry">
            <mxPoint x="260" y="540" as="targetPoint" />
          </mxGeometry>
        </mxCell>
        <mxCell id="AiupzfriiUT0BEA5pnW3-30" value="Есть" style="text;align=center;fontStyle=1;verticalAlign=middle;spacingLeft=3;spacingRight=3;strokeColor=none;rotatable=0;points=[[0,0.5],[1,0.5]];portConstraint=eastwest;html=1;" vertex="1" parent="AiupzfriiUT0BEA5pnW3-3">
          <mxGeometry y="510" width="80" height="26" as="geometry" />
        </mxCell>
        <mxCell id="AiupzfriiUT0BEA5pnW3-28" value="Списать деньги" style="rounded=1;whiteSpace=wrap;html=1;arcSize=40;fontColor=#000000;fillColor=#ffffc0;strokeColor=#ff0000;" vertex="1" parent="AiupzfriiUT0BEA5pnW3-3">
          <mxGeometry x="80" y="640" width="90" height="40" as="geometry" />
        </mxCell>
        <mxCell id="AiupzfriiUT0BEA5pnW3-32" value="" style="edgeStyle=orthogonalEdgeStyle;html=1;verticalAlign=bottom;endArrow=open;endSize=8;strokeColor=#ff0000;rounded=0;exitX=0.5;exitY=1;exitDx=0;exitDy=0;" edge="1" parent="AiupzfriiUT0BEA5pnW3-3">
          <mxGeometry relative="1" as="geometry">
            <mxPoint x="124.28999999999996" y="800" as="targetPoint" />
            <mxPoint x="124.28999999999996" y="680" as="sourcePoint" />
            <Array as="points">
              <mxPoint x="124.28999999999996" y="720" />
              <mxPoint x="124.28999999999996" y="720" />
            </Array>
          </mxGeometry>
        </mxCell>
        <mxCell id="AiupzfriiUT0BEA5pnW3-40" value="Проверка на участие" style="rounded=1;whiteSpace=wrap;html=1;arcSize=40;fontColor=#000000;fillColor=#ffffc0;strokeColor=#ff0000;" vertex="1" parent="AiupzfriiUT0BEA5pnW3-3">
          <mxGeometry x="100" y="970" width="120" height="40" as="geometry" />
        </mxCell>
        <mxCell id="AiupzfriiUT0BEA5pnW3-41" value="" style="edgeStyle=orthogonalEdgeStyle;html=1;verticalAlign=bottom;endArrow=open;endSize=8;strokeColor=#ff0000;rounded=0;entryX=0.604;entryY=-0.046;entryDx=0;entryDy=0;entryPerimeter=0;" edge="1" source="AiupzfriiUT0BEA5pnW3-40" parent="AiupzfriiUT0BEA5pnW3-3" target="AiupzfriiUT0BEA5pnW3-46">
          <mxGeometry relative="1" as="geometry">
            <mxPoint x="160" y="1050" as="targetPoint" />
          </mxGeometry>
        </mxCell>
        <mxCell id="AiupzfriiUT0BEA5pnW3-43" value="Не учавствует" style="rounded=1;whiteSpace=wrap;html=1;arcSize=40;fontColor=#000000;fillColor=#ffffc0;strokeColor=#ff0000;" vertex="1" parent="AiupzfriiUT0BEA5pnW3-3">
          <mxGeometry x="180" y="810" width="90" height="40" as="geometry" />
        </mxCell>
        <mxCell id="AiupzfriiUT0BEA5pnW3-46" value="Вывод баланса" style="rounded=1;whiteSpace=wrap;html=1;arcSize=40;fontColor=#000000;fillColor=#ffffc0;strokeColor=#ff0000;" vertex="1" parent="AiupzfriiUT0BEA5pnW3-3">
          <mxGeometry x="90" y="1070" width="120" height="40" as="geometry" />
        </mxCell>
        <mxCell id="AiupzfriiUT0BEA5pnW3-11" value="" style="edgeStyle=orthogonalEdgeStyle;html=1;verticalAlign=bottom;endArrow=open;endSize=8;strokeColor=#ff0000;rounded=0;entryX=0;entryY=0.5;entryDx=0;entryDy=0;exitX=1;exitY=0.5;exitDx=0;exitDy=0;" edge="1" parent="1" source="AiupzfriiUT0BEA5pnW3-9" target="AiupzfriiUT0BEA5pnW3-10">
          <mxGeometry relative="1" as="geometry">
            <mxPoint x="160" y="270" as="targetPoint" />
            <mxPoint x="160" y="220" as="sourcePoint" />
          </mxGeometry>
        </mxCell>
        <mxCell id="AiupzfriiUT0BEA5pnW3-12" value="" style="edgeStyle=orthogonalEdgeStyle;html=1;verticalAlign=bottom;endArrow=open;endSize=8;strokeColor=#ff0000;rounded=0;exitX=0.5;exitY=1;exitDx=0;exitDy=0;" edge="1" parent="1" source="AiupzfriiUT0BEA5pnW3-10">
          <mxGeometry relative="1" as="geometry">
            <mxPoint x="600" y="320" as="targetPoint" />
            <mxPoint x="630" y="330" as="sourcePoint" />
          </mxGeometry>
        </mxCell>
        <mxCell id="AiupzfriiUT0BEA5pnW3-17" value="" style="edgeStyle=orthogonalEdgeStyle;html=1;align=left;verticalAlign=top;endArrow=open;endSize=8;strokeColor=#ff0000;rounded=0;exitX=0.5;exitY=1;exitDx=0;exitDy=0;entryX=0;entryY=0.5;entryDx=0;entryDy=0;" edge="1" parent="1" source="AiupzfriiUT0BEA5pnW3-16" target="AiupzfriiUT0BEA5pnW3-18">
          <mxGeometry x="-0.2643" y="-20" relative="1" as="geometry">
            <mxPoint x="560" y="440" as="targetPoint" />
            <mxPoint x="114.28571428571429" y="370" as="sourcePoint" />
            <mxPoint as="offset" />
            <Array as="points">
              <mxPoint x="120" y="415" />
              <mxPoint x="121" y="440" />
            </Array>
          </mxGeometry>
        </mxCell>
        <mxCell id="AiupzfriiUT0BEA5pnW3-22" value="" style="edgeStyle=orthogonalEdgeStyle;html=1;align=left;verticalAlign=bottom;endArrow=open;endSize=8;strokeColor=#ff0000;rounded=0;exitX=0;exitY=0.5;exitDx=0;exitDy=0;" edge="1" parent="1" source="AiupzfriiUT0BEA5pnW3-19">
          <mxGeometry x="-1" relative="1" as="geometry">
            <mxPoint x="320" y="570" as="targetPoint" />
            <mxPoint x="600" y="500" as="sourcePoint" />
          </mxGeometry>
        </mxCell>
        <mxCell id="AiupzfriiUT0BEA5pnW3-2" value="Администратор" style="swimlane;whiteSpace=wrap;html=1;" vertex="1" parent="1">
          <mxGeometry x="240" width="240" height="1330" as="geometry" />
        </mxCell>
        <mxCell id="AiupzfriiUT0BEA5pnW3-25" value="" style="shape=line;html=1;strokeWidth=6;strokeColor=#ff0000;" vertex="1" parent="AiupzfriiUT0BEA5pnW3-2">
          <mxGeometry x="30" y="570" width="200" height="10" as="geometry" />
        </mxCell>
        <mxCell id="AiupzfriiUT0BEA5pnW3-29" value="Выдать лот" style="rounded=1;whiteSpace=wrap;html=1;arcSize=40;fontColor=#000000;fillColor=#ffffc0;strokeColor=#ff0000;" vertex="1" parent="AiupzfriiUT0BEA5pnW3-2">
          <mxGeometry x="30" y="640" width="90" height="40" as="geometry" />
        </mxCell>
        <mxCell id="AiupzfriiUT0BEA5pnW3-27" value="" style="edgeStyle=orthogonalEdgeStyle;html=1;verticalAlign=bottom;endArrow=open;endSize=8;strokeColor=#ff0000;rounded=0;" edge="1" parent="AiupzfriiUT0BEA5pnW3-2">
          <mxGeometry relative="1" as="geometry">
            <mxPoint x="80" y="640" as="targetPoint" />
            <mxPoint x="80" y="575" as="sourcePoint" />
            <Array as="points">
              <mxPoint x="80" y="575" />
              <mxPoint x="80" y="640" />
            </Array>
          </mxGeometry>
        </mxCell>
        <mxCell id="AiupzfriiUT0BEA5pnW3-33" value="" style="shape=line;html=1;strokeWidth=6;strokeColor=#ff0000;" vertex="1" parent="AiupzfriiUT0BEA5pnW3-2">
          <mxGeometry x="60" y="800" width="320" height="10" as="geometry" />
        </mxCell>
        <mxCell id="AiupzfriiUT0BEA5pnW3-34" value="" style="edgeStyle=orthogonalEdgeStyle;html=1;verticalAlign=bottom;endArrow=open;endSize=8;strokeColor=#ff0000;rounded=0;" edge="1" source="AiupzfriiUT0BEA5pnW3-33" parent="AiupzfriiUT0BEA5pnW3-2">
          <mxGeometry relative="1" as="geometry">
            <mxPoint x="160" y="880" as="targetPoint" />
          </mxGeometry>
        </mxCell>
        <mxCell id="AiupzfriiUT0BEA5pnW3-35" value="" style="rhombus;whiteSpace=wrap;html=1;fontColor=#000000;fillColor=#ffffc0;strokeColor=#ff0000;" vertex="1" parent="AiupzfriiUT0BEA5pnW3-2">
          <mxGeometry x="120" y="880" width="80" height="40" as="geometry" />
        </mxCell>
        <mxCell id="AiupzfriiUT0BEA5pnW3-26" value="" style="edgeStyle=orthogonalEdgeStyle;html=1;verticalAlign=bottom;endArrow=open;endSize=8;strokeColor=#ff0000;rounded=0;exitX=0.505;exitY=1;exitDx=0;exitDy=0;exitPerimeter=0;entryX=0.5;entryY=0;entryDx=0;entryDy=0;" edge="1" source="AiupzfriiUT0BEA5pnW3-25" parent="1" target="AiupzfriiUT0BEA5pnW3-28">
          <mxGeometry relative="1" as="geometry">
            <mxPoint x="330" y="640" as="targetPoint" />
          </mxGeometry>
        </mxCell>
        <mxCell id="AiupzfriiUT0BEA5pnW3-31" value="" style="edgeStyle=orthogonalEdgeStyle;html=1;verticalAlign=bottom;endArrow=open;endSize=8;strokeColor=#ff0000;rounded=0;exitX=0.5;exitY=1;exitDx=0;exitDy=0;" edge="1" parent="1" source="AiupzfriiUT0BEA5pnW3-29">
          <mxGeometry relative="1" as="geometry">
            <mxPoint x="315" y="800" as="targetPoint" />
            <mxPoint x="330" y="610" as="sourcePoint" />
            <Array as="points">
              <mxPoint x="315" y="790" />
            </Array>
          </mxGeometry>
        </mxCell>
        <mxCell id="AiupzfriiUT0BEA5pnW3-21" value="Нет" style="edgeStyle=orthogonalEdgeStyle;html=1;align=left;verticalAlign=top;endArrow=open;endSize=8;strokeColor=#ff0000;rounded=0;" edge="1" source="AiupzfriiUT0BEA5pnW3-19" parent="1">
          <mxGeometry x="-1" y="30" relative="1" as="geometry">
            <mxPoint x="700" y="810" as="targetPoint" />
            <Array as="points">
              <mxPoint x="700" y="540" />
              <mxPoint x="700" y="810" />
            </Array>
            <mxPoint as="offset" />
          </mxGeometry>
        </mxCell>
        <mxCell id="AiupzfriiUT0BEA5pnW3-37" value="" style="edgeStyle=orthogonalEdgeStyle;html=1;align=left;verticalAlign=top;endArrow=open;endSize=8;strokeColor=#ff0000;rounded=0;" edge="1" source="AiupzfriiUT0BEA5pnW3-35" parent="1" target="AiupzfriiUT0BEA5pnW3-40">
          <mxGeometry x="-1" relative="1" as="geometry">
            <mxPoint x="590" y="990" as="targetPoint" />
            <Array as="points">
              <mxPoint x="400" y="980" />
              <mxPoint x="400" y="980" />
            </Array>
          </mxGeometry>
        </mxCell>
        <mxCell id="AiupzfriiUT0BEA5pnW3-45" value="" style="edgeStyle=orthogonalEdgeStyle;html=1;verticalAlign=bottom;endArrow=open;endSize=8;strokeColor=#ff0000;rounded=0;exitX=0.5;exitY=1;exitDx=0;exitDy=0;entryX=1;entryY=0.5;entryDx=0;entryDy=0;" edge="1" parent="1" source="AiupzfriiUT0BEA5pnW3-43" target="AiupzfriiUT0BEA5pnW3-35">
          <mxGeometry relative="1" as="geometry">
            <mxPoint x="610" y="870" as="targetPoint" />
            <mxPoint x="610" y="750" as="sourcePoint" />
            <Array as="points">
              <mxPoint x="705" y="900" />
            </Array>
          </mxGeometry>
        </mxCell>
        <mxCell id="AiupzfriiUT0BEA5pnW3-47" value="" style="rhombus;whiteSpace=wrap;html=1;fontColor=#000000;fillColor=#ffffc0;strokeColor=#ff0000;" vertex="1" parent="1">
          <mxGeometry x="590" y="1150" width="80" height="40" as="geometry" />
        </mxCell>
        <mxCell id="AiupzfriiUT0BEA5pnW3-14" value="данные введены" style="edgeStyle=orthogonalEdgeStyle;html=1;align=left;verticalAlign=bottom;endArrow=open;endSize=8;strokeColor=#ff0000;rounded=0;entryX=1;entryY=0.5;entryDx=0;entryDy=0;" edge="1" source="AiupzfriiUT0BEA5pnW3-13" parent="1" target="AiupzfriiUT0BEA5pnW3-47">
          <mxGeometry x="-1" relative="1" as="geometry">
            <mxPoint x="760" y="1170" as="targetPoint" />
            <Array as="points">
              <mxPoint x="760" y="340" />
              <mxPoint x="760" y="1170" />
            </Array>
          </mxGeometry>
        </mxCell>
        <mxCell id="AiupzfriiUT0BEA5pnW3-48" value="" style="edgeStyle=orthogonalEdgeStyle;html=1;verticalAlign=bottom;endArrow=open;endSize=8;strokeColor=#ff0000;rounded=0;entryX=0.5;entryY=0;entryDx=0;entryDy=0;exitX=0.5;exitY=1;exitDx=0;exitDy=0;" edge="1" parent="1" source="AiupzfriiUT0BEA5pnW3-46" target="AiupzfriiUT0BEA5pnW3-47">
          <mxGeometry relative="1" as="geometry">
            <mxPoint x="662" y="1118" as="targetPoint" />
            <mxPoint x="660" y="1060" as="sourcePoint" />
          </mxGeometry>
        </mxCell>
        <mxCell id="AiupzfriiUT0BEA5pnW3-51" value="" style="edgeStyle=orthogonalEdgeStyle;html=1;verticalAlign=bottom;endArrow=open;endSize=8;strokeColor=#ff0000;rounded=0;entryX=1;entryY=0.5;entryDx=0;entryDy=0;exitX=0.5;exitY=1;exitDx=0;exitDy=0;" edge="1" parent="1" source="AiupzfriiUT0BEA5pnW3-47" target="AiupzfriiUT0BEA5pnW3-49">
          <mxGeometry relative="1" as="geometry">
            <mxPoint x="680" y="1250" as="targetPoint" />
            <mxPoint x="680" y="1210" as="sourcePoint" />
          </mxGeometry>
        </mxCell>
      </root>
    </mxGraphModel>
  </diagram>
</mxfile>
